<svg version="1.1" id="image-01" xmlns="http://www.w3.org/2000/svg" xmlns:xlink="http://www.w3.org/1999/xlink" x="0px" y="0px"
                     viewBox="0 0 640 480" style="enable-background:new 0 0 640 480;" xml:space="preserve">
<style type="text/css">
    .st0{fill:#FFFFFF;stroke:#000000;stroke-width:1.3;stroke-linecap:round;stroke-linejoin:round;}
    .st1{fill:#FFFFFF;}
</style>
                    <g>
                        <path class="st0" d="M330,182.1c0,0,14.1-17.9,42.8-19.7c28.7-1.9,33.4,12,31.7,18.3c-1.6,6.3-9.6,11.3-26.3,7.3
		c-16.7-4-29.8-4.2-38.6-0.2C330.8,191.7,325.4,187.8,330,182.1z"/>
                    </g>
                    <g>
                        <path class="st0" d="M301.3,177.7c0,0-6.1-33.8,9.6-53.8c15.7-20,32.2-15,35.8-8.3c3.6,6.7-3.1,14.3-11,20.5
		c-7.8,6.3-25.1,21.2-24.6,38.4C311.6,191.7,301.5,177.3,301.3,177.7z"/>
                    </g>
                    <g>
                        <path class="st0" d="M293.5,251.9c0,0-26.6,1.2-37.6-10.8c-11-12,0.5-23.3,7.1-25.4c6.6-2.1,12.5,4.2,18.1,10.6
		C286.7,232.7,310.7,245.8,293.5,251.9z"/>
                    </g>
                    <g>
                        <path class="st0" d="M292.4,240.9c0,0-25.4,18.8-30.1,46.1c-4.7,27.3,55.9,48.4,76.6,21.6c20.7-26.8-10.8-64.4-16.9-69.6
		C315.9,233.8,298.5,233.4,292.4,240.9z"/>
                    </g>
                    <g>
                        <path class="st0" d="M322.9,174.1c-30.7-7.9-53.6,16.5-53.3,32.7c0.3,16.3,14.7,37,39.5,39.5c24.8,2.5,44.2-12.2,46.7-32.6
		C358.3,193.4,341.7,179,322.9,174.1z"/>
                    </g>
                    <g>
                        <path class="st0" d="M331.4,242.9c0,0-11.9,0.9-12.8,11.3c-0.9,10.3,18.2,17.5,26.6,6.3C353.6,249.2,331.4,242.9,331.4,242.9z"/>
                    </g>
                    <g>
                        <path class="st0" d="M340.5,260.5c9.7,0.6,37.9-2.8,46.7-17.9c8.8-15-2.8-29.8-14.4-28.5c-11.6,1.3-21.9,15.5-29.1,21.2
		c-7.2,5.6-17.2,8.9-16.6,16.1C327.6,258.6,335.1,260.1,340.5,260.5z"/>
                    </g>
                    <g>
                        <path class="st0" d="M301.5,208.7c13.5,3.6,17.4,14.1,16.9,20.7c-0.5,6.6-13.2,15.7-23.3,13.2c-10.1-2.6-15.7-13.6-13.6-23.7
		C283.7,208.7,293.5,206.6,301.5,208.7z"/>
                    </g>
                    <path d="M302.7,216.8c-0.4,1.6-3.3,3.3-6.1,2.7c-2.8-0.6-4.4-3.3-4-4.9c0.4-1.7,2.5-1.5,5.3-0.9
	C300.7,214.4,303.1,215.2,302.7,216.8z"/>
                    <circle cx="318.8" cy="209.8" r="4"/>
                    <circle class="st1" cx="320.2" cy="208.6" r="1.6"/>
                    <g>
                        <path class="st0" d="M298,250.9c0,0-7.7,10.7-13.2,13.8c-5.5,3.1-4.1-5.5-5.8-6.4c-1.7-0.9-3.9-4.1-0.3-7.5
		C282.3,247.3,298,244.6,298,250.9z"/>
                    </g>
                    <g>
                        <path class="st0" d="M297.2,241.5c0,0-6-5.6-11.1-5.8c-5.2-0.2-4.5,5-3.9,6.9c0.6,1.9-0.9,5,0.2,7.8c1.1,2.8,11,1.9,14.3-0.5
		C299.9,247.6,297.2,241.5,297.2,241.5z"/>
                    </g>
                    <g>
                        <path class="st0" d="M298,250.9c0,0,2.5,12.1,6.3,15.8c3.8,3.8,5.8-2.6,6.4-4c0.6-1.4,4.1-1.2,4.3-5.4
		C315.3,253.1,300.7,245.1,298,250.9z"/>
                    </g>
                    <g>
                        <path class="st0" d="M298.8,241.8c-3.1,0-7,7.8-2,9.4c5,1.6,6.1-3.1,6.1-5.5C302.9,243.4,301.9,241.8,298.8,241.8z"/>
                    </g>
                    <g>
                        <path class="st0" d="M301.6,243.7c0,0,7.8-7.8,16-6.4c8.1,1.4,6.1,8.6,3.1,11.1c0,0,1.6,7.2-4.1,9.7c-5.6,2.5-12.5-1.1-15.8-6.9
		c-1.4-3,0.6-4.7,0.6-4.7S301,244.5,301.6,243.7z"/>
                    </g>
                    <g>
                        <path d="M295.3,185c-5.2,7.8-7.4,15.3-7.4,15.2c-0.3-0.1,3.3-10.8,6.9-15.6c5.2-8.1,12.3-11.8,12.2-11.8
		C307.2,173,301.4,175.8,295.3,185z"/>
                        <path d="M324.6,190.8c-6.4,7.4-9.7,14.9-9.7,14.8c-0.2-0.1,4.9-10.8,9.3-15.2c6.5-7.9,14.9-9.8,14.8-9.7
		C339.2,180.9,332.2,182,324.6,190.8z"/>
                        <g>
                            <path d="M299.9,229.3c-2.7-1.5-3-6.7-2.9-8.6c-0.3,1.6-0.9,5.7,2.5,9.1c2.9,2.2,6.2,1,7.4-0.1c0.8-0.7,1.2-1.3,1.3-1.7
			C307.4,229.2,304,232.2,299.9,229.3z"/>
                        </g>
                        <path d="M294.4,228.8c3.6-2.8,2.2-7.9,2.5-7.6c0-0.3,1.2,6.3-2.3,8.1c-2.4,1.3-5-0.2-5.4-1.9c-0.6-1.6-0.2-2.6-0.2-2.5
		c0,0-0.1,0.8,0.4,2.2C289.8,228.4,291.9,230,294.4,228.8z"/>
                        <g>
                            <path d="M382.9,239.6c-3.4,0.2-8.5-1.7-11-6.4c-3.7-4.5-1-12.9,0.7-16.4c-1.8,2.9-4.9,9.2-1.2,16.7c3.2,5.8,9.1,6.8,12.2,6.4
			c3.3-0.3,4.9-1.2,4.9-1.2C388.5,238.7,386.4,239.6,382.9,239.6z"/>
                        </g>
                        <path d="M357.6,251.3c9.6-5.1,16-11.4,16-11.4c0.3,0.2-9.5,9-15.7,11.9c-9.7,5.3-18.8,6.1-18.7,6.2
		C339.1,257.8,346.4,257.2,357.6,251.3z"/>
                        <path d="M292.4,244.3c-1.2-0.3-2.3-0.3-2.3-0.3c0,0,1.5-0.5,2.4-0.3c1.4,0.3,2,1.4,2,1.4C294.4,245.1,293.7,244.6,292.4,244.3z"/>
                        <path d="M303.9,246.1c-2.4,0.2-3.6,1.8-3.4,1.9c-0.5-0.2,1.6-2.6,3.3-2.5c2.4-0.3,4.3,0.5,4.3,0.4
		C308.2,246,306.6,245.8,303.9,246.1z"/>
                        <path d="M320.2,248.5c-0.6-1.8-2.4-2.3-2.3-2.3c0-0.3,2.6,0.5,2.9,2.1c0.7,2,0.1,3.7,0.2,3.6C320.8,252,320.9,250.6,320.2,248.5z"
                        />
                        <path d="M287,253.1c2.4-1.1,4.6-1,4.6-1c0,0-3,0.8-4.3,1.5c-2.3,1-3.7,2.6-3.7,2.6C283.6,256.4,284.2,254.5,287,253.1z"/>
                        <path d="M268.1,241.9c-7.5-2.5-12.9-6.2-12.9-6.2c-0.1,0.2,8.4,4.3,13.1,5.7c7.4,2.6,13.8,3.3,13.8,3.4
		C282.2,244.6,276.9,244.9,268.1,241.9z"/>
                        <path d="M373.1,171.7c-16.4,1.9-29.1,6.7-29.1,6.5c-0.1-0.1,18.7-6.4,29.1-7.1c8.1-1.3,16.7,0.8,19.1,6.3c1.3,5.9-4,7.5-3.3,7.5
		c-0.5-0.1,3.4-1.3,3.3-6.5C390.9,173.2,382.5,170.2,373.1,171.7z"/>
                        <path d="M311.9,134.1c-7.5,18.3-8.2,34.8-8.5,34.7c-0.2,0,2.3-23.7,7.9-35c3.4-9.5,12.9-15.4,19.6-13.1c6.3,2.7,6.9,7.8,7,7.5
		c-0.1,0.3-0.6-3.7-6-6.8C326.4,118.6,315.9,123.2,311.9,134.1z"/>
                    </g>
                    <g>
                        <g>
                            <path class="st0" d="M224.5,326.4c0,2.2-1.8,3.9-3.9,3.9l0,0c-2.2,0-3.9-1.8-3.9-3.9v-17.5c0-2.2,1.8-3.9,3.9-3.9l0,0
			c2.2,0,3.9,1.8,3.9,3.9V326.4z"/>
                        </g>
                        <g>
                            <path class="st0" d="M246.5,326.3c0,2.9-2.5,5.3-5.5,5.3h-22.5c-3.1,0-5.5-2.4-5.5-5.3l0,0c0-2.9,2.5-5.3,5.5-5.3h22.5
			C244,320.9,246.5,323.3,246.5,326.3L246.5,326.3z"/>
                            <path class="st0" d="M214.3,325.7c-0.6,0-0.5-1.3-0.1-2.8c-0.8,0.9-1.3,2.1-1.3,3.4c0,2.9,2.5,5.3,5.5,5.3h22.5
			c2.1,0,3.9-1.1,4.9-2.8C235.3,330,224.8,333.2,214.3,325.7z"/>
                        </g>
                    </g>
                    <g>
                        <g>
                            <path class="st0" d="M404.5,309c0.8,2.8-0.9,5.8-3.9,6.6l-21.6,6.1c-2.9,0.8-6-0.8-6.8-3.6l0,0c-0.8-2.8,0.9-5.8,3.9-6.6l21.6-6.1
			C400.7,304.6,403.7,306.2,404.5,309L404.5,309z"/>
                        </g>
                        <g>
                            <path class="st0" d="M238.8,278c0,0,0,57.3,0,63c0,5.6,2.4,11.9,23.7,11.9c21.4,0,98,0,108.6,0c10.6,0,15.3-3.9,15.3-26.9
			c0-23,0-58.8,0-58.8s-71.4-0.9-78,0.9c-6.6,1.9-6.6,12.7-7.5,20.7c-0.9,8-16.5,14.1-24.4,11.3c-8-2.8-12.2-7.5-12.7-16.5
			c-0.5-8.9-7.5-11.8-13.6-10.8C244,273.8,238.8,278,238.8,278z"/>
                        </g>
                        <g>
                            <path class="st0" d="M233.9,275.5c-0.5,5.3,12.5,2.8,17.2,2.8c4.7,0,9.4,2.5,9.4,10c0,7.5,5.3,18.2,25.4,18.2
			c20.1,0,21.3-16.6,21.3-22.9c0-6.3-0.3-11.3,6-11.3c6.3,0,64.2-1.6,68.9-1.6s8.1-4.4,7.8-8.1c-0.3-3.8-2.5-5.3-10.3-5.3
			c-7.8,0-45.8,3.1-55.8,3.1c-10,0-18.8,0.2-22.1,0.6c-3.3,0.5-5.2,4.5-5.2,12.9c0,8.5,0.9,20.4-11.8,21.2
			c-12.7,0.7-15.5-4.5-16-15.3c-0.5-10.8-2.4-11.5-7.3-12c-4.9-0.5-17.4,0.2-22.8,0.2C233.4,268.1,234,274.6,233.9,275.5z"/>
                        </g>
                        <g>
                            <path class="st0" d="M341.7,317.6c-14.1-6.6-25.4-24.2-16-30.8c9.4-6.6,16,2.2,16,2.2s6.6-8.8,16-2.2
			C367.1,293.4,355.8,311,341.7,317.6z"/>
                        </g>
                        <g>
                            <circle class="st0" cx="374.2" cy="283.9" r="3.4"/>
                        </g>
                        <g>
                            <circle class="st0" cx="374.7" cy="301.3" r="3.4"/>
                        </g>
                    </g>
                    <g>
                        <g>
                            <path class="st0" d="M286.1,349.5c0-0.9-7.3-1.7-17.1-1.8c6.8-7,11.4-12.7,10.8-13.4c-0.6-0.6-6.4,4-13.4,10.8
			c-0.2-9.8-0.9-17.1-1.8-17.1c-0.9,0-1.7,7.3-1.8,17.1c-7-6.8-12.7-11.4-13.4-10.8c-0.6,0.6,4,6.4,10.8,13.4
			c-9.8,0.2-17.1,0.9-17.1,1.8c0,0.9,7.3,1.7,17.1,1.8c-6.8,7-11.4,12.7-10.8,13.4c0.6,0.6,6.4-4,13.4-10.8
			c0.2,9.8,0.9,17.1,1.8,17.1c0.9,0,1.7-7.3,1.8-17.1c7,6.8,12.7,11.4,13.4,10.8c0.6-0.6-4-6.4-10.8-13.4
			C278.8,351.1,286.1,350.4,286.1,349.5z"/>
                        </g>
                        <g>
                            <path class="st0" d="M264.6,322c-15.1,0-27.4,12.3-27.4,27.4c0,15.1,12.3,27.4,27.4,27.4c15.1,0,27.4-12.3,27.4-27.4
			C292,334.3,279.7,322,264.6,322z M264.6,371c-11.9,0-21.5-9.6-21.5-21.5c0-11.9,9.6-21.5,21.5-21.5c11.9,0,21.5,9.6,21.5,21.5
			C286.1,361.3,276.5,371,264.6,371z"/>
                        </g>
                        <g>
                            <path class="st0" d="M294.9,349.2H235c0-16.5,13.4-29.9,29.9-29.9C281.5,319.3,294.9,332.7,294.9,349.2z"/>
                        </g>
                    </g>
                    <g>
                        <g>
                            <path class="st0" d="M384.6,349.5c0-0.9-7.3-1.7-17.1-1.8c6.8-7,11.4-12.7,10.8-13.4c-0.6-0.6-6.4,4-13.4,10.8
			c-0.2-9.8-0.9-17.1-1.8-17.1c-0.9,0-1.7,7.3-1.8,17.1c-7-6.8-12.7-11.4-13.4-10.8c-0.6,0.6,4,6.4,10.8,13.4
			c-9.8,0.2-17.1,0.9-17.1,1.8c0,0.9,7.3,1.7,17.1,1.8c-6.8,7-11.4,12.7-10.8,13.4c0.6,0.6,6.4-4,13.4-10.8
			c0.2,9.8,0.9,17.1,1.8,17.1c0.9,0,1.7-7.3,1.8-17.1c7,6.8,12.7,11.4,13.4,10.8c0.6-0.6-4-6.4-10.8-13.4
			C377.3,351.1,384.6,350.4,384.6,349.5z"/>
                        </g>
                        <g>
                            <path class="st0" d="M363.1,322c-15.1,0-27.4,12.3-27.4,27.4c0,15.1,12.3,27.4,27.4,27.4c15.1,0,27.4-12.3,27.4-27.4
			C390.5,334.3,378.3,322,363.1,322z M363.1,371c-11.9,0-21.5-9.6-21.5-21.5c0-11.9,9.6-21.5,21.5-21.5c11.9,0,21.5,9.6,21.5,21.5
			C384.6,361.3,375,371,363.1,371z"/>
                        </g>
                        <g>
                            <path class="st0" d="M393.4,349.2h-59.8c0-16.5,13.4-29.9,29.9-29.9C380,319.3,393.4,332.7,393.4,349.2z"/>
                        </g>
                    </g>
                    <circle cx="286.8" cy="203.6" r="3.5"/>
                    <circle class="st1" cx="288.3" cy="202.7" r="1.3"/>
</svg>